<?xml version="1.0" encoding="UTF-8"?>
<svg id="Layer_1" data-name="Layer 1" xmlns="http://www.w3.org/2000/svg" viewBox="0 0 200 200">
  <defs>
    <style>
      .cls-1 {
        fill: #ffd02f;
      }

      .cls-2 {
        fill: #050038;
      }
    </style>
  </defs>
  <path class="cls-1" d="m170.92,0H29.08C13.09,0,0,13.09,0,29.08v141.83c0,16,13.09,29.08,29.08,29.08h141.84c15.99,0,29.08-13.09,29.08-29.08h0V29.08h0c0-16-13.09-29.08-29.08-29.08Z"/>
  <path class="cls-2" d="m136.28,26.67h-21.35l18.95,29.38-40.07-29.38h-21.35l18.95,38.49L51.35,26.67h-21.35l18.64,49.69-18.64,96.97h21.35l40.07-103.98-18.95,103.98h21.35l40.07-113.09-18.95,113.09h21.35l40.38-124.23-40.38-22.44Z"/>
</svg>